<svg fill="none" height="40" viewBox="0 0 176 40" width="176" xmlns="http://www.w3.org/2000/svg" xmlns:xlink="http://www.w3.org/1999/xlink"><filter id="a" color-interpolation-filters="sRGB" filterUnits="userSpaceOnUse" height="40" width="176" x="0" y="0"><feFlood flood-opacity="0" result="BackgroundImageFix"/><feColorMatrix in="SourceAlpha" result="hardAlpha" type="matrix" values="0 0 0 0 0 0 0 0 0 0 0 0 0 0 0 0 0 0 127 0"/><feOffset dy="4"/><feGaussianBlur stdDeviation="2"/><feComposite in2="hardAlpha" operator="out"/><feColorMatrix type="matrix" values="0 0 0 0 0 0 0 0 0 0 0 0 0 0 0 0 0 0 0.25 0"/><feBlend in2="BackgroundImageFix" mode="normal" result="effect1_dropShadow"/><feBlend in="SourceGraphic" in2="effect1_dropShadow" mode="normal" result="shape"/></filter><linearGradient id="b" gradientUnits="userSpaceOnUse" x1="4" x2="172" y1="16" y2="16"><stop offset="0" stop-color="#0047b9"/><stop offset="1" stop-color="#791ff3"/></linearGradient><g filter="url(#a)"><path d="m4 4c0-2.20914 1.79086-4 4-4h160c2.209 0 4 1.79086 4 4v24c0 2.2091-1.791 4-4 4h-160c-2.20913 0-4-1.7909-4-4z" fill="url(#b)"/><g fill="#fff"><path d="m18.2726 9c-.1066 0-.1778.11854-.1185.21338l2.5131 3.92382c.2134.32.569.5216.9484.5216h3.3903c1.2447 0 2.0271 1.1024 2.0153 2.3353-.0119 1.2328-.8298 2.3234-2.0153 2.3234h-3.6274c-.2134 0-.3793.166-.3793.3794v3.9238c0 .2133.1659.3793.3793.3793h4.6232c4.0068 0 5.9983-3.8052 5.9983-6.9941 0-3.2006-1.9678-6.99404-5.9983-6.99404h-7.7291zm1.6359 9.3294h-.9009c-.5571 0-1.0076.5216-1.0076 1.1617v1.8493 1.5529c0 .0593.0474.1067.1067.1067h.9009c.5572 0 1.0076-.5216 1.0076-1.1617v-3.4022c0-.0712-.0474-.1067-.1067-.1067z"/><path d="m41.2899 11.298h2.184v9.702h-2.184zm8.3357 5.796c0-.672-.0887-1.148-.266-1.428-.168-.28-.462-.42-.882-.42-.1307 0-.266.0093-.406.028-.14.0093-.2753.0233-.406.042v5.684h-2.086v-7.112c.1773-.0467.3827-.0933.616-.14.2427-.056.4947-.1027.756-.14.2707-.0467.546-.0793.826-.098.28-.028.5553-.042.826-.042.532 0 .9613.07 1.288.21.336.1307.6113.2893.826.476.2987-.2147.6393-.3827 1.022-.504.392-.1213.7513-.182 1.078-.182.588 0 1.0687.084 1.442.252.3827.1587.686.3873.91.686s.378.6533.462 1.064.126.868.126 1.372v4.158h-2.086v-3.906c0-.672-.0887-1.148-.266-1.428-.168-.28-.462-.42-.882-.42-.112 0-.2707.028-.476.084-.196.056-.3593.126-.49.21.0653.2147.1073.4433.126.686.0187.2333.028.4853.028.756v4.018h-2.086zm12.7443.28c0-.644-.1447-1.1573-.434-1.54-.2894-.392-.7187-.588-1.288-.588-.1867 0-.3594.0093-.518.028-.1587.0093-.2894.0233-.392.042v3.766c.1306.084.2986.154.504.21.2146.056.4293.084.644.084.9893 0 1.484-.6673 1.484-2.002zm2.128-.056c0 .5693-.07 1.0873-.21 1.554s-.3454.868-.616 1.204c-.2707.336-.6067.5973-1.008.784-.4014.1867-.8634.28-1.386.28-.2894 0-.56-.028-.812-.084s-.4947-.1353-.728-.238v2.772h-2.086v-9.702c.1866-.056.4013-.1073.644-.154.2426-.056.4946-.1027.756-.14.2706-.0373.5413-.0653.812-.084.28-.028.546-.042.798-.042.6066 0 1.148.0933 1.624.28.476.1773.8773.434 1.204.77.3266.3267.574.728.742 1.204.1773.476.266 1.008.266 1.596zm8.4912-.014c0 .5787-.084 1.1107-.252 1.596-.168.476-.4107.8867-.728 1.232-.3173.336-.7.5973-1.148.784-.4387.1867-.9333.28-1.484.28-.5413 0-1.036-.0933-1.484-.28-.4387-.1867-.8167-.448-1.134-.784-.3173-.3453-.5647-.756-.742-1.232-.1773-.4853-.266-1.0173-.266-1.596s.0887-1.106.266-1.582c.1867-.476.4387-.882.756-1.218.3267-.336.7093-.5973 1.148-.784.448-.1867.9333-.28 1.456-.28.532 0 1.0173.0933 1.456.28.448.1867.8307.448 1.148.784s.5647.742.742 1.218.266 1.0033.266 1.582zm-2.128 0c0-.644-.1307-1.148-.392-1.512-.252-.3733-.616-.56-1.092-.56s-.8447.1867-1.106.56c-.2613.364-.392.868-.392 1.512s.1307 1.1573.392 1.54c.2613.3733.63.56 1.106.56s.84-.1867 1.092-.56c.2613-.3827.392-.896.392-1.54zm8.1819-1.82c-.1867-.0467-.406-.0933-.658-.14-.252-.056-.5227-.084-.812-.084-.1307 0-.2893.014-.476.042-.1773.0187-.3127.042-.406.07v5.628h-2.086v-6.972c.3733-.1307.812-.252 1.316-.364.5133-.1213 1.0827-.182 1.708-.182.112 0 .2473.0093.406.028.1587.0093.3173.028.476.056.1587.0187.3173.0467.476.084.1587.028.294.0653.406.112zm1.3983-3.682 2.086-.336v2.17h2.506v1.736h-2.506v2.59c0 .4387.0746.7887.224 1.05.1586.2613.4713.392.938.392.224 0 .4526-.0187.686-.056.2426-.0467.462-.1073.658-.182l.294 1.624c-.252.1027-.532.1913-.84.266s-.686.112-1.134.112c-.5694 0-1.0407-.0747-1.414-.224-.3734-.1587-.672-.3733-.896-.644-.224-.28-.3827-.616-.476-1.008-.084-.392-.126-.826-.126-1.302zm11.0119 1.918h2.758v1.092h-2.758v3.36c0 .364.028.6673.084.91.056.2333.14.42.252.56.112.1307.252.224.42.28s.364.084.588.084c.392 0 .7047-.042.938-.126.2427-.0933.4107-.1587.504-.196l.252 1.078c-.1306.0653-.3593.1447-.686.238-.3266.1027-.7.154-1.12.154-.4946 0-.9053-.0607-1.232-.182-.3173-.1307-.574-.322-.77-.574s-.336-.56-.42-.924c-.0746-.3733-.112-.8027-.112-1.288v-6.496l1.302-.224zm10.6498 3.64c0 .5787-.084 1.1013-.252 1.568s-.406.868-.714 1.204c-.299.336-.658.5973-1.078.784-.4204.1773-.8777.266-1.3724.266-.4946 0-.952-.0887-1.372-.266-.42-.1867-.784-.448-1.092-.784-.2986-.336-.532-.7373-.7-1.204s-.252-.9893-.252-1.568c0-.5693.084-1.0873.252-1.554.168-.476.4014-.882.7-1.218.308-.336.672-.5927 1.092-.77.42-.1867.8774-.28 1.372-.28.4947 0 .952.0933 1.3724.28.42.1773.779.434 1.078.77.308.336.546.742.714 1.218.168.4667.252.9847.252 1.554zm-1.358 0c0-.8213-.187-1.47-.56-1.946-.3644-.4853-.8637-.728-1.4984-.728-.6346 0-1.1386.2427-1.512.728-.364.476-.546 1.1247-.546 1.946s.182 1.4747.546 1.96c.3734.476.8774.714 1.512.714.6347 0 1.134-.238 1.4984-.714.373-.4853.56-1.1387.56-1.96zm14.48-1.218c0 .84-.131 1.5727-.392 2.198-.262.616-.63 1.1293-1.106 1.54-.476.4013-1.046.7047-1.708.91-.663.196-1.391.294-2.184.294-.392 0-.826-.0187-1.302-.056-.467-.028-.892-.0887-1.274-.182v-9.408c.382-.0933.807-.154 1.274-.182.476-.0373.91-.056 1.302-.056.793 0 1.521.1027 2.184.308.662.196 1.232.4993 1.708.91.476.4013.844.9147 1.106 1.54.261.616.392 1.344.392 2.184zm-5.278 3.752c1.288 0 2.249-.3267 2.884-.98.634-.6627.952-1.5867.952-2.772s-.318-2.1047-.952-2.758c-.635-.6627-1.596-.994-2.884-.994-.383 0-.682.0047-.896.014-.206.0093-.35.0187-.434.028v7.42c.084.0093.228.0187.434.028.214.0093.513.014.896.014zm13.634-2.534c0 .5787-.084 1.1013-.252 1.568s-.406.868-.714 1.204c-.299.336-.658.5973-1.078.784-.42.1773-.877.266-1.372.266s-.952-.0887-1.372-.266c-.42-.1867-.784-.448-1.092-.784-.299-.336-.532-.7373-.7-1.204s-.252-.9893-.252-1.568c0-.5693.084-1.0873.252-1.554.168-.476.401-.882.7-1.218.308-.336.672-.5927 1.092-.77.42-.1867.877-.28 1.372-.28s.952.0933 1.372.28c.42.1773.779.434 1.078.77.308.336.546.742.714 1.218.168.4667.252.9847.252 1.554zm-1.358 0c0-.8213-.187-1.47-.56-1.946-.364-.4853-.863-.728-1.498-.728s-1.139.2427-1.512.728c-.364.476-.546 1.1247-.546 1.946s.182 1.4747.546 1.96c.373.476.877.714 1.512.714s1.134-.238 1.498-.714c.373-.4853.56-1.1387.56-1.96zm8.244.014c0-.8493-.21-1.5027-.63-1.96s-.98-.686-1.68-.686c-.392 0-.7.014-.924.042-.215.028-.387.0607-.518.098v4.592c.159.1307.387.2567.686.378s.625.182.98.182c.373 0 .691-.0653.952-.196.271-.14.49-.3267.658-.56.168-.2427.289-.5227.364-.84.075-.3267.112-.6767.112-1.05zm1.358 0c0 .5507-.075 1.0593-.224 1.526-.14.4667-.35.868-.63 1.204s-.625.5973-1.036.784c-.401.1867-.863.28-1.386.28-.42 0-.793-.056-1.12-.168-.317-.112-.555-.2193-.714-.322v2.912h-1.302v-9.646c.308-.0747.691-.154 1.148-.238.467-.0933 1.003-.14 1.61-.14.56 0 1.064.0887 1.512.266s.831.4293 1.148.756.56.728.728 1.204c.177.4667.266.994.266 1.582zm6.886 0c0-.8493-.21-1.5027-.63-1.96s-.98-.686-1.68-.686c-.392 0-.7.014-.924.042-.215.028-.387.0607-.518.098v4.592c.159.1307.387.2567.686.378s.625.182.98.182c.373 0 .691-.0653.952-.196.271-.14.49-.3267.658-.56.168-.2427.289-.5227.364-.84.075-.3267.112-.6767.112-1.05zm1.358 0c0 .5507-.075 1.0593-.224 1.526-.14.4667-.35.868-.63 1.204s-.625.5973-1.036.784c-.401.1867-.863.28-1.386.28-.42 0-.793-.056-1.12-.168-.317-.112-.555-.2193-.714-.322v2.912h-1.302v-9.646c.308-.0747.691-.154 1.148-.238.467-.0933 1.003-.14 1.61-.14.56 0 1.064.0887 1.512.266s.831.4293 1.148.756.56.728.728 1.204c.177.4667.266.994.266 1.582zm4.016 3.766c-.802-.0187-1.372-.1913-1.708-.518s-.504-.8353-.504-1.526v-8.736l1.302-.224v8.75c0 .2147.019.392.056.532.038.14.098.252.182.336s.196.1493.336.196c.14.0373.313.07.518.098zm1.238-3.766c0-.644.094-1.204.28-1.68.187-.4853.434-.8867.742-1.204s.663-.5553 1.064-.714c.402-.1587.812-.238 1.232-.238.98 0 1.732.308 2.254.924.523.6067.784 1.5353.784 2.786v.224c0 .084-.004.1633-.014.238h-4.984c.056.756.276 1.33.658 1.722.383.392.98.588 1.792.588.458 0 .84-.0373 1.148-.112.318-.084.556-.1633.714-.238l.182 1.092c-.158.084-.438.1727-.84.266-.392.0933-.84.14-1.344.14-.634 0-1.185-.0933-1.652-.28-.457-.196-.835-.462-1.134-.798-.298-.336-.522-.7327-.672-1.19-.14-.4667-.21-.9753-.21-1.526zm4.998-.714c.01-.588-.14-1.0687-.448-1.442-.298-.3827-.714-.574-1.246-.574-.298 0-.564.0607-.798.182-.224.112-.415.2613-.574.448-.158.1867-.284.4013-.378.644-.084.2427-.14.49-.168.742zm5.917-3.094c.112 0 .238.0093.378.028.149.0093.294.028.434.056.14.0187.266.042.378.07.121.0187.21.0373.266.056l-.224 1.134c-.103-.0373-.276-.0793-.518-.126-.234-.056-.537-.084-.91-.084-.243 0-.486.028-.728.084-.234.0467-.388.0793-.462.098v6.118h-1.302v-6.972c.308-.112.69-.2147 1.148-.308.457-.1027.97-.154 1.54-.154z"/></g></g></svg>