<svg width="173" height="32" viewBox="0 0 173 32" fill="none" xmlns="http://www.w3.org/2000/svg">
<rect width="173" height="32" rx="8" fill="url(#paint0_linear_2173_43829)" style=""/>
<path d="M20.0376 10.8182V21H17.8849V10.8182H20.0376ZM21.769 21V13.3636H23.7875V14.7109H23.877C24.036 14.2635 24.3012 13.9105 24.6724 13.652C25.0436 13.3935 25.4877 13.2642 26.0048 13.2642C26.5285 13.2642 26.9743 13.3951 27.3422 13.657C27.7101 13.9155 27.9553 14.2668 28.0779 14.7109H28.1575C28.3133 14.2734 28.595 13.9238 29.0027 13.6619C29.4136 13.3968 29.8992 13.2642 30.4593 13.2642C31.1719 13.2642 31.7503 13.4912 32.1944 13.9453C32.6419 14.3961 32.8656 15.0357 32.8656 15.8643V21H30.7527V16.282C30.7527 15.8577 30.64 15.5395 30.4146 15.3274C30.1892 15.1153 29.9075 15.0092 29.5694 15.0092C29.185 15.0092 28.885 15.1319 28.6696 15.3771C28.4541 15.6191 28.3464 15.9389 28.3464 16.3366V21H26.2931V16.2372C26.2931 15.8627 26.1854 15.5644 25.97 15.3423C25.7579 15.1203 25.4778 15.0092 25.1298 15.0092C24.8945 15.0092 24.6824 15.0689 24.4934 15.1882C24.3078 15.3042 24.1603 15.4683 24.051 15.6804C23.9416 15.8892 23.8869 16.1345 23.8869 16.4162V21H21.769ZM34.5385 23.8636V13.3636H36.6266V14.6463H36.7211C36.8139 14.4408 36.9481 14.232 37.1238 14.0199C37.3027 13.8045 37.5347 13.6255 37.8198 13.483C38.1081 13.3371 38.4661 13.2642 38.8936 13.2642C39.4505 13.2642 39.9642 13.41 40.4348 13.7017C40.9055 13.9901 41.2817 14.4259 41.5634 15.0092C41.8451 15.5893 41.986 16.3168 41.986 17.1918C41.986 18.0436 41.8484 18.7628 41.5733 19.3494C41.3016 19.9328 40.9303 20.3752 40.4597 20.6768C39.9924 20.9751 39.4687 21.1243 38.8887 21.1243C38.4777 21.1243 38.128 21.0563 37.8397 20.9205C37.5546 20.7846 37.321 20.6139 37.1387 20.4084C36.9564 20.1996 36.8172 19.9891 36.7211 19.777H36.6564V23.8636H34.5385ZM36.6117 17.1818C36.6117 17.6359 36.6747 18.032 36.8006 18.37C36.9266 18.7081 37.1088 18.9716 37.3475 19.1605C37.5861 19.3461 37.8761 19.4389 38.2175 19.4389C38.5622 19.4389 38.8539 19.3445 39.0925 19.1555C39.3311 18.9633 39.5118 18.6982 39.6344 18.3601C39.7604 18.0187 39.8233 17.6259 39.8233 17.1818C39.8233 16.741 39.762 16.3532 39.6394 16.0185C39.5167 15.6837 39.3361 15.4219 39.0975 15.233C38.8588 15.044 38.5655 14.9496 38.2175 14.9496C37.8728 14.9496 37.5811 15.0407 37.3425 15.223C37.1072 15.4053 36.9266 15.6638 36.8006 15.9986C36.6747 16.3333 36.6117 16.7277 36.6117 17.1818ZM46.8482 21.1491C46.0759 21.1491 45.4081 20.9851 44.8446 20.657C44.2845 20.3255 43.852 19.8648 43.5471 19.2749C43.2421 18.6816 43.0897 17.9938 43.0897 17.2116C43.0897 16.4228 43.2421 15.7334 43.5471 15.1435C43.852 14.5502 44.2845 14.0895 44.8446 13.7614C45.4081 13.4299 46.0759 13.2642 46.8482 13.2642C47.6204 13.2642 48.2866 13.4299 48.8468 13.7614C49.4102 14.0895 49.8444 14.5502 50.1493 15.1435C50.4542 15.7334 50.6067 16.4228 50.6067 17.2116C50.6067 17.9938 50.4542 18.6816 50.1493 19.2749C49.8444 19.8648 49.4102 20.3255 48.8468 20.657C48.2866 20.9851 47.6204 21.1491 46.8482 21.1491ZM46.8581 19.5085C47.2095 19.5085 47.5028 19.4091 47.7381 19.2102C47.9734 19.008 48.1507 18.733 48.2701 18.3849C48.3927 18.0369 48.454 17.6409 48.454 17.1967C48.454 16.7526 48.3927 16.3565 48.2701 16.0085C48.1507 15.6605 47.9734 15.3854 47.7381 15.1832C47.5028 14.9811 47.2095 14.88 46.8581 14.88C46.5035 14.88 46.2052 14.9811 45.9632 15.1832C45.7246 15.3854 45.544 15.6605 45.4213 16.0085C45.302 16.3565 45.2424 16.7526 45.2424 17.1967C45.2424 17.6409 45.302 18.0369 45.4213 18.3849C45.544 18.733 45.7246 19.008 45.9632 19.2102C46.2052 19.4091 46.5035 19.5085 46.8581 19.5085ZM51.9838 21V13.3636H54.0371V14.696H54.1167C54.2559 14.2221 54.4895 13.8641 54.8176 13.6222C55.1458 13.3769 55.5236 13.2543 55.9512 13.2543C56.0572 13.2543 56.1716 13.2609 56.2942 13.2741C56.4168 13.2874 56.5246 13.3056 56.6174 13.3288V15.2081C56.5179 15.1783 56.3804 15.1518 56.2047 15.1286C56.0291 15.1054 55.8683 15.0938 55.7225 15.0938C55.4109 15.0938 55.1325 15.1617 54.8873 15.2976C54.6453 15.4302 54.4531 15.6158 54.3105 15.8544C54.1713 16.093 54.1017 16.3681 54.1017 16.6797V21H51.9838ZM62.157 13.3636V14.9545H57.5582V13.3636H62.157ZM58.6023 11.5341H60.7202V18.6534C60.7202 18.849 60.75 19.0014 60.8097 19.1108C60.8693 19.2169 60.9522 19.2914 61.0582 19.3345C61.1676 19.3776 61.2936 19.3991 61.4361 19.3991C61.5355 19.3991 61.6349 19.3909 61.7344 19.3743C61.8338 19.3544 61.91 19.3395 61.9631 19.3295L62.2962 20.9055C62.1901 20.9387 62.041 20.9768 61.8487 21.0199C61.6565 21.0663 61.4228 21.0945 61.1477 21.1044C60.6373 21.1243 60.1899 21.0563 59.8054 20.9006C59.4242 20.7448 59.1276 20.5028 58.9155 20.1747C58.7034 19.8466 58.599 19.4323 58.6023 18.9318V11.5341ZM70.8386 13.3636V14.9545H66.2399V13.3636H70.8386ZM67.2839 11.5341H69.4018V18.6534C69.4018 18.849 69.4316 19.0014 69.4913 19.1108C69.551 19.2169 69.6338 19.2914 69.7399 19.3345C69.8493 19.3776 69.9752 19.3991 70.1177 19.3991C70.2172 19.3991 70.3166 19.3909 70.416 19.3743C70.5154 19.3544 70.5917 19.3395 70.6447 19.3295L70.9778 20.9055C70.8717 20.9387 70.7226 20.9768 70.5304 21.0199C70.3381 21.0663 70.1045 21.0945 69.8294 21.1044C69.319 21.1243 68.8715 21.0563 68.487 20.9006C68.1059 20.7448 67.8092 20.5028 67.5971 20.1747C67.385 19.8466 67.2806 19.4323 67.2839 18.9318V11.5341ZM75.5865 21.1491C74.8142 21.1491 74.1464 20.9851 73.5829 20.657C73.0228 20.3255 72.5903 19.8648 72.2853 19.2749C71.9804 18.6816 71.8279 17.9938 71.8279 17.2116C71.8279 16.4228 71.9804 15.7334 72.2853 15.1435C72.5903 14.5502 73.0228 14.0895 73.5829 13.7614C74.1464 13.4299 74.8142 13.2642 75.5865 13.2642C76.3587 13.2642 77.0249 13.4299 77.585 13.7614C78.1485 14.0895 78.5827 14.5502 78.8876 15.1435C79.1925 15.7334 79.345 16.4228 79.345 17.2116C79.345 17.9938 79.1925 18.6816 78.8876 19.2749C78.5827 19.8648 78.1485 20.3255 77.585 20.657C77.0249 20.9851 76.3587 21.1491 75.5865 21.1491ZM75.5964 19.5085C75.9477 19.5085 76.2411 19.4091 76.4764 19.2102C76.7117 19.008 76.889 18.733 77.0083 18.3849C77.131 18.0369 77.1923 17.6409 77.1923 17.1967C77.1923 16.7526 77.131 16.3565 77.0083 16.0085C76.889 15.6605 76.7117 15.3854 76.4764 15.1832C76.2411 14.9811 75.9477 14.88 75.5964 14.88C75.2418 14.88 74.9435 14.9811 74.7015 15.1832C74.4629 15.3854 74.2823 15.6605 74.1596 16.0085C74.0403 16.3565 73.9806 16.7526 73.9806 17.1967C73.9806 17.6409 74.0403 18.0369 74.1596 18.3849C74.2823 18.733 74.4629 19.008 74.7015 19.2102C74.9435 19.4091 75.2418 19.5085 75.5964 19.5085Z" fill="#F1F0EC" style="fill:#F1F0EC;fill:color(display-p3 0.9451 0.9412 0.9255);fill-opacity:1;"/>
<g clip-path="url(#clip0_2173_43829)">
<path d="M92.2288 9.03372C91.6838 8.88768 91.1283 9.23045 91.0143 9.78305L90.4974 12.2905C90.1597 13.9283 88.8802 15.2084 87.2425 15.5469L84.7828 16.0552C84.2303 16.1694 83.8877 16.7249 84.0337 17.2699C84.1798 17.815 84.7544 18.1248 85.29 17.9473L87.6837 17.1542C89.2752 16.6268 91.0278 17.0964 92.1424 18.3489L93.819 20.2328C94.194 20.6542 94.8464 20.6732 95.2453 20.2743C95.6443 19.8753 95.6253 19.2228 95.2037 18.8477L93.3076 17.1611C92.0517 16.044 91.5808 14.2868 92.1097 12.6913L92.9059 10.2897C93.0834 9.75424 92.7737 9.17973 92.2288 9.03372Z" fill="#F1F0EC" style="fill:#F1F0EC;fill:color(display-p3 0.9451 0.9412 0.9255);fill-opacity:1;"/>
<path d="M85.7138 12.1703C85.2681 11.767 85.2508 11.0728 85.6757 10.6478C86.1007 10.2228 86.795 10.2402 87.1982 10.6859L88.4659 12.087C88.8079 12.465 88.7934 13.0447 88.433 13.4051C88.0726 13.7655 87.4929 13.78 87.115 13.438L85.7138 12.1703Z" fill="#F1F0EC" style="fill:#F1F0EC;fill:color(display-p3 0.9451 0.9412 0.9255);fill-opacity:1;"/>
<path d="M95.5716 12.945C96.1437 12.7606 96.7536 13.0927 96.9091 13.6733C97.0647 14.2538 96.7026 14.8464 96.115 14.9727L94.2677 15.37C93.7694 15.4772 93.2746 15.1748 93.1427 14.6825C93.0108 14.1902 93.2881 13.6809 93.7732 13.5246L95.5716 12.945Z" fill="#F1F0EC" style="fill:#F1F0EC;fill:color(display-p3 0.9451 0.9412 0.9255);fill-opacity:1;"/>
<path d="M89.9243 21.1327C89.7979 21.7203 89.2054 22.0824 88.6248 21.9268C88.0443 21.7713 87.7122 21.1614 87.8966 20.5893L88.4761 18.7909C88.6325 18.3058 89.1417 18.0285 89.6341 18.1604C90.1264 18.2923 90.4288 18.7871 90.3216 19.2854L89.9243 21.1327Z" fill="#F1F0EC" style="fill:#F1F0EC;fill:color(display-p3 0.9451 0.9412 0.9255);fill-opacity:1;"/>
</g>
<path d="M100.333 10.0371H104.378C105.523 10.0371 106.536 10.2445 107.415 10.6593C108.304 11.0741 108.995 11.6766 109.489 12.4667C109.993 13.2569 110.244 14.1803 110.244 15.2371C110.244 16.3137 110.002 17.247 109.519 18.0371C109.044 18.8272 108.368 19.4346 107.489 19.8593C106.61 20.2741 105.583 20.4816 104.407 20.4816H100.333V10.0371ZM104.289 18.1704C104.891 18.1704 105.415 18.0618 105.859 17.8445C106.304 17.6272 106.649 17.3013 106.896 16.8667C107.143 16.4322 107.267 15.8988 107.267 15.2667C107.267 14.6149 107.143 14.0717 106.896 13.6371C106.649 13.2025 106.304 12.8816 105.859 12.6741C105.415 12.4569 104.896 12.3482 104.304 12.3482H103.193V18.1704H104.289Z" fill="#F1F0EC" style="fill:#F1F0EC;fill:color(display-p3 0.9451 0.9412 0.9255);fill-opacity:1;"/>
<path d="M115.05 20.7038C114.191 20.7038 113.426 20.5408 112.754 20.2149C112.092 19.889 111.574 19.4248 111.198 18.8223C110.823 18.2198 110.635 17.5235 110.635 16.7334C110.635 15.9532 110.823 15.2667 111.198 14.6741C111.574 14.0717 112.092 13.6124 112.754 13.2964C113.426 12.9704 114.191 12.8075 115.05 12.8075C115.919 12.8075 116.685 12.9704 117.347 13.2964C118.018 13.6124 118.542 14.0717 118.917 14.6741C119.292 15.2667 119.48 15.9532 119.48 16.7334C119.48 17.5235 119.292 18.2198 118.917 18.8223C118.542 19.4248 118.018 19.889 117.347 20.2149C116.685 20.5408 115.919 20.7038 115.05 20.7038ZM115.05 18.689C115.386 18.689 115.677 18.61 115.924 18.4519C116.171 18.284 116.364 18.0519 116.502 17.7556C116.64 17.4593 116.71 17.1186 116.71 16.7334C116.71 16.3482 116.64 16.0124 116.502 15.726C116.374 15.4297 116.186 15.2025 115.939 15.0445C115.692 14.8865 115.401 14.8075 115.065 14.8075C114.729 14.8075 114.433 14.8865 114.176 15.0445C113.929 15.2025 113.737 15.4297 113.598 15.726C113.47 16.0124 113.406 16.3482 113.406 16.7334C113.406 17.1186 113.475 17.4643 113.613 17.7704C113.751 18.0667 113.944 18.2939 114.191 18.4519C114.438 18.61 114.724 18.689 115.05 18.689Z" fill="#F1F0EC" style="fill:#F1F0EC;fill:color(display-p3 0.9451 0.9412 0.9255);fill-opacity:1;"/>
<path d="M120.223 13.0297H122.86V13.9927C123.087 13.6865 123.408 13.4198 123.823 13.1927C124.247 12.9655 124.751 12.8519 125.334 12.8519C126.035 12.8519 126.652 13.0149 127.186 13.3408C127.729 13.6569 128.144 14.1112 128.43 14.7038C128.726 15.2865 128.874 15.9779 128.874 16.7779C128.874 17.5383 128.726 18.2198 128.43 18.8223C128.134 19.4149 127.714 19.8741 127.171 20.2001C126.628 20.526 126 20.689 125.289 20.689C124.924 20.689 124.593 20.6445 124.297 20.5556C124 20.4766 123.739 20.363 123.511 20.2149C123.294 20.0667 123.111 19.9038 122.963 19.726V23.0001H120.223V13.0297ZM124.445 18.689C124.781 18.689 125.067 18.6149 125.304 18.4667C125.551 18.3087 125.744 18.0865 125.882 17.8001C126.02 17.5038 126.089 17.1532 126.089 16.7482C126.089 16.3433 126.02 15.9976 125.882 15.7112C125.753 15.4149 125.566 15.1927 125.319 15.0445C125.072 14.8865 124.781 14.8075 124.445 14.8075C124.119 14.8075 123.832 14.8865 123.586 15.0445C123.339 15.1927 123.141 15.4149 122.993 15.7112C122.855 15.9976 122.786 16.3433 122.786 16.7482C122.786 17.1433 122.855 17.489 122.993 17.7853C123.131 18.0816 123.324 18.3087 123.571 18.4667C123.828 18.6149 124.119 18.689 124.445 18.689Z" fill="#F1F0EC" style="fill:#F1F0EC;fill:color(display-p3 0.9451 0.9412 0.9255);fill-opacity:1;"/>
<path d="M129.627 13.0297H132.264V13.9927C132.491 13.6865 132.812 13.4198 133.227 13.1927C133.652 12.9655 134.155 12.8519 134.738 12.8519C135.439 12.8519 136.057 13.0149 136.59 13.3408C137.133 13.6569 137.548 14.1112 137.835 14.7038C138.131 15.2865 138.279 15.9779 138.279 16.7779C138.279 17.5383 138.131 18.2198 137.835 18.8223C137.538 19.4149 137.118 19.8741 136.575 20.2001C136.032 20.526 135.405 20.689 134.694 20.689C134.328 20.689 133.997 20.6445 133.701 20.5556C133.405 20.4766 133.143 20.363 132.916 20.2149C132.699 20.0667 132.516 19.9038 132.368 19.726V23.0001H129.627V13.0297ZM133.849 18.689C134.185 18.689 134.472 18.6149 134.709 18.4667C134.955 18.3087 135.148 18.0865 135.286 17.8001C135.425 17.5038 135.494 17.1532 135.494 16.7482C135.494 16.3433 135.425 15.9976 135.286 15.7112C135.158 15.4149 134.97 15.1927 134.723 15.0445C134.476 14.8865 134.185 14.8075 133.849 14.8075C133.523 14.8075 133.237 14.8865 132.99 15.0445C132.743 15.1927 132.546 15.4149 132.397 15.7112C132.259 15.9976 132.19 16.3433 132.19 16.7482C132.19 17.1433 132.259 17.489 132.397 17.7853C132.536 18.0816 132.728 18.3087 132.975 18.4667C133.232 18.6149 133.523 18.689 133.849 18.689Z" fill="#F1F0EC" style="fill:#F1F0EC;fill:color(display-p3 0.9451 0.9412 0.9255);fill-opacity:1;"/>
<path d="M139.032 10.0371H141.772V20.4816H139.032V10.0371Z" fill="#F1F0EC" style="fill:#F1F0EC;fill:color(display-p3 0.9451 0.9412 0.9255);fill-opacity:1;"/>
<path d="M146.673 20.7038C145.804 20.7038 145.058 20.5408 144.436 20.2149C143.814 19.8791 143.335 19.4149 142.999 18.8223C142.673 18.2198 142.51 17.5186 142.51 16.7186C142.51 15.9383 142.678 15.2569 143.014 14.6741C143.359 14.0816 143.843 13.6223 144.465 13.2964C145.098 12.9704 145.828 12.8075 146.658 12.8075C147.596 12.8075 148.386 13.0001 149.028 13.3853C149.68 13.7704 150.149 14.3038 150.436 14.9853C150.732 15.6667 150.841 16.442 150.762 17.3112H145.147C145.147 17.6569 145.206 17.9532 145.325 18.2001C145.453 18.447 145.626 18.6396 145.843 18.7779C146.07 18.9062 146.337 18.9704 146.643 18.9704C147.028 18.9704 147.335 18.8914 147.562 18.7334C147.799 18.5754 147.977 18.3532 148.095 18.0667H150.643C150.544 18.5507 150.332 18.9902 150.006 19.3853C149.68 19.7803 149.236 20.1013 148.673 20.3482C148.11 20.5853 147.443 20.7038 146.673 20.7038ZM148.125 15.9186C148.105 15.6124 148.031 15.3556 147.902 15.1482C147.784 14.9309 147.616 14.768 147.399 14.6593C147.181 14.5507 146.935 14.4964 146.658 14.4964C146.233 14.4964 145.893 14.6248 145.636 14.8816C145.379 15.1285 145.226 15.4741 145.177 15.9186H148.125Z" fill="#F1F0EC" style="fill:#F1F0EC;fill:color(display-p3 0.9451 0.9412 0.9255);fill-opacity:1;"/>
<path d="M151.533 13.0297H154.17V14.5408C154.387 14.0865 154.703 13.7013 155.118 13.3853C155.533 13.0593 156.101 12.8964 156.822 12.8964H156.955V15.4149H156.288C155.775 15.4149 155.37 15.4939 155.074 15.6519C154.777 15.8001 154.57 16.0272 154.451 16.3334C154.333 16.6297 154.274 17.0248 154.274 17.5186V20.4816H151.533V13.0297Z" fill="#F1F0EC" style="fill:#F1F0EC;fill:color(display-p3 0.9451 0.9412 0.9255);fill-opacity:1;"/>
<defs>
<linearGradient id="paint0_linear_2173_43829" x1="6.44475e-07" y1="16" x2="173" y2="16" gradientUnits="userSpaceOnUse">
<stop stop-color="#6B13F5" style="stop-color:#6B13F5;stop-color:color(display-p3 0.4196 0.0745 0.9608);stop-opacity:1;"/>
<stop offset="1" stop-color="#440C9D" style="stop-color:#440C9D;stop-color:color(display-p3 0.2667 0.0471 0.6157);stop-opacity:1;"/>
</linearGradient>
<clipPath id="clip0_2173_43829">
<rect width="12.963" height="12.963" fill="white" style="fill:white;fill-opacity:1;" transform="translate(84 9)"/>
</clipPath>
</defs>
</svg>
