<svg fill="none" height="32" viewBox="0 0 174 32" width="174" xmlns="http://www.w3.org/2000/svg" xmlns:xlink="http://www.w3.org/1999/xlink"><linearGradient id="a" gradientUnits="userSpaceOnUse" x1="0" x2="173.114" y1="16" y2="16"><stop offset="0" stop-color="#0047b9"/><stop offset="1" stop-color="#791ff3"/></linearGradient><path d="m0 4c0-2.20914 1.79086-4 4-4h165.114c2.209 0 4 1.79086 4 4v24c0 2.2091-1.791 4-4 4h-165.114c-2.20914 0-4-1.7909-4-4z" fill="url(#a)"/><g fill="#fff"><path d="m15.5575 11.298h1.358v9.702h-1.358zm3.6758 2.632c.2986-.0747.6906-.154 1.176-.238.4946-.084 1.064-.126 1.708-.126.4666 0 .8586.0653 1.176.196.3173.1213.5833.3033.798.546.0653-.0467.168-.112.308-.196s.3126-.1633.518-.238c.2053-.084.434-.154.686-.21.252-.0653.5226-.098.812-.098.56 0 1.0173.084 1.372.252.3546.1587.63.3873.826.686.2053.2987.3406.6533.406 1.064.0746.4107.112.8587.112 1.344v4.088h-1.302v-3.808c0-.4293-.0234-.798-.07-1.106-.0374-.308-.1167-.5647-.238-.77-.112-.2053-.2707-.3547-.476-.448-.196-.1027-.4527-.154-.77-.154-.4387 0-.8027.0607-1.092.182-.28.112-.4714.2147-.574.308.0746.2427.1306.5087.168.798.0373.2893.056.5927.056.91v4.088h-1.302v-3.808c0-.4293-.0234-.798-.07-1.106-.0467-.308-.1307-.5647-.252-.77-.112-.2053-.2707-.3547-.476-.448-.196-.1027-.448-.154-.756-.154-.1307 0-.2707.0047-.42.014-.1494.0093-.294.0233-.434.042-.1307.0093-.252.0233-.364.042s-.1867.0327-.224.042v6.146h-1.302zm17.1126 3.444c0-.8493-.21-1.5027-.63-1.96s-.98-.686-1.68-.686c-.392 0-.7.014-.924.042-.2147.028-.3874.0607-.518.098v4.592c.1586.1307.3873.2567.686.378.2986.1213.6253.182.98.182.3733 0 .6906-.0653.952-.196.2706-.14.49-.3267.658-.56.168-.2427.2893-.5227.364-.84.0746-.3267.112-.6767.112-1.05zm1.358 0c0 .5507-.0747 1.0593-.224 1.526-.14.4667-.35.868-.63 1.204s-.6254.5973-1.036.784c-.4014.1867-.8634.28-1.386.28-.42 0-.7934-.056-1.12-.168-.3174-.112-.5554-.2193-.714-.322v2.912h-1.302v-9.646c.308-.0747.6906-.154 1.148-.238.4666-.0933 1.0033-.14 1.61-.14.56 0 1.064.0887 1.512.266s.8306.4293 1.148.756c.3173.3267.56.728.728 1.204.1773.4667.266.994.266 1.582zm8.2581-.014c0 .5787-.084 1.1013-.252 1.568s-.406.868-.714 1.204c-.2987.336-.658.5973-1.078.784-.42.1773-.8773.266-1.372.266s-.952-.0887-1.372-.266c-.42-.1867-.784-.448-1.092-.784-.2987-.336-.532-.7373-.7-1.204s-.252-.9893-.252-1.568c0-.5693.084-1.0873.252-1.554.168-.476.4013-.882.7-1.218.308-.336.672-.5927 1.092-.77.42-.1867.8773-.28 1.372-.28s.952.0933 1.372.28c.42.1773.7793.434 1.078.77.308.336.546.742.714 1.218.168.4667.252.9847.252 1.554zm-1.358 0c0-.8213-.1867-1.47-.56-1.946-.364-.4853-.8633-.728-1.498-.728s-1.1387.2427-1.512.728c-.364.476-.546 1.1247-.546 1.946s.182 1.4747.546 1.96c.3733.476.8773.714 1.512.714s1.134-.238 1.498-.714c.3733-.4853.56-1.1387.56-1.96zm5.8778-3.794c.112 0 .238.0093.378.028.1494.0093.294.028.434.056.14.0187.266.042.378.07.1214.0187.21.0373.266.056l-.224 1.134c-.1026-.0373-.2753-.0793-.518-.126-.2333-.056-.5366-.084-.91-.084-.2426 0-.4853.028-.728.084-.2333.0467-.3873.0793-.462.098v6.118h-1.302v-6.972c.308-.112.6907-.2147 1.148-.308.4574-.1027.9707-.154 1.54-.154zm3.9304.154h2.758v1.092h-2.758v3.36c0 .364.028.6673.084.91.056.2333.14.42.252.56.112.1307.252.224.42.28s.364.084.588.084c.392 0 .7047-.042.938-.126.2427-.0933.4107-.1587.504-.196l.252 1.078c-.1306.0653-.3593.1447-.686.238-.3266.1027-.7.154-1.12.154-.4946 0-.9053-.0607-1.232-.182-.3173-.1307-.574-.322-.77-.574s-.336-.56-.42-.924c-.0746-.3733-.112-.8027-.112-1.288v-6.496l1.302-.224zm8.8731 0h2.758v1.092h-2.758v3.36c0 .364.028.6673.084.91.056.2333.14.42.252.56.112.1307.252.224.42.28s.364.084.588.084c.392 0 .7046-.042.938-.126.2426-.0933.4106-.1587.504-.196l.252 1.078c-.1307.0653-.3594.1447-.686.238-.3267.1027-.7.154-1.12.154-.4947 0-.9054-.0607-1.232-.182-.3174-.1307-.574-.322-.77-.574s-.336-.56-.42-.924c-.0747-.3733-.112-.8027-.112-1.288v-6.496l1.302-.224zm10.6494 3.64c0 .5787-.084 1.1013-.252 1.568s-.406.868-.714 1.204c-.2987.336-.658.5973-1.078.784-.42.1773-.8774.266-1.372.266-.4947 0-.952-.0887-1.372-.266-.42-.1867-.784-.448-1.092-.784-.2987-.336-.532-.7373-.7-1.204s-.252-.9893-.252-1.568c0-.5693.084-1.0873.252-1.554.168-.476.4013-.882.7-1.218.308-.336.672-.5927 1.092-.77.42-.1867.8773-.28 1.372-.28.4946 0 .952.0933 1.372.28.42.1773.7793.434 1.078.77.308.336.546.742.714 1.218.168.4667.252.9847.252 1.554zm-1.358 0c0-.8213-.1867-1.47-.56-1.946-.364-.4853-.8634-.728-1.498-.728-.6347 0-1.1387.2427-1.512.728-.364.476-.546 1.1247-.546 1.946s.182 1.4747.546 1.96c.3733.476.8773.714 1.512.714.6346 0 1.134-.238 1.498-.714.3733-.4853.56-1.1387.56-1.96z"/><path d="m102.629 19.5714h.257.428c.943 0 1.629-.2571 2.057-.6857.515-.4286.772-1.1143.772-1.9714 0-.8572-.257-1.5429-.686-1.9715-.428-.4285-1.114-.6857-2.057-.6857-.086 0-.257 0-.429 0-.085 0-.085 0-.171 0-.171 0-.257.0857-.257.2572v5.0571zm5.4-2.6571c0 .6857-.086 1.3714-.343 1.8857s-.515.9428-.943 1.3714c-.429.3429-.943.6-1.543.7714-.6.1715-1.286.2572-1.971.2572-.343 0-.686 0-1.2-.0857-.343 0-.772-.0858-1.115-.0858-.085 0-.171-.1714-.171-.2571v-7.8857c.428-.0857.857-.1714 1.371-.1714.515 0 .857-.0858 1.2-.0858.686 0 1.372.0858 1.972.2572s1.114.4286 1.543.7714c.428.3429.771.7714.942 1.2857.172.6.258 1.2857.258 1.9715z"/><path d="m111.8 16.9143c0 .4285.086.7714.171 1.1143.086.3428.258.6.429.8571s.429.4286.686.5143.6.1714.943.1714c.342 0 .685-.0857.942-.1714.258-.0857.515-.3429.686-.5143.172-.2571.343-.5143.429-.8571.085-.3429.171-.6858.171-1.1143 0-.4286-.086-.7715-.171-1.1143-.086-.3429-.257-.6-.429-.8572-.171-.2571-.428-.4285-.686-.5142-.257-.0858-.6-.1715-.942-.1715-.343 0-.686.0857-.943.1715-.257.0857-.515.3428-.686.5142-.171.2572-.343.5143-.429.8572-.085.3428-.171.7714-.171 1.1143zm6.343 0c0 .6857-.086 1.3714-.343 1.8857-.171.5143-.514 1.0286-.857 1.3714-.343.3429-.772.6-1.286.8572-.514.1714-1.028.2571-1.628.2571s-1.115-.0857-1.629-.2571c-.514-.1715-.943-.4286-1.286-.8572-.343-.3428-.685-.8571-.857-1.3714-.257-.5143-.343-1.2-.343-1.8857s.086-1.3715.343-1.8857c.257-.5143.514-1.0286.857-1.3715.343-.3428.857-.6857 1.286-.8571.514-.1714 1.029-.2572 1.543-.2572.6 0 1.114.0858 1.628.2572.515.1714.943.4286 1.286.8571.343.3429.686.8572.857 1.3715.343.6.429 1.2.429 1.8857z"/><path d="m122.857 12.7143c1.2 0 2.229.2571 2.829.6857.685.3429 1.028 1.1143 1.028 2.0572 0 1.0285-.343 1.7142-1.028 2.1428-.686.4286-1.629.6857-2.915.6857h-.342c-.172 0-.258.0857-.258.2572v2.4857h-1.628c-.172 0-.257-.0857-.257-.2572v-7.8857c.428-.0857.857-.1714 1.285-.1714zm.086 1.5429c-.172 0-.257 0-.429 0h-.085c-.172 0-.258.0857-.258.2571v2.1429h.6c.686 0 1.115-.0858 1.458-.2572.342-.1714.514-.5143.514-.9428 0-.2572-.086-.4286-.172-.6-.085-.1715-.171-.2572-.342-.3429-.086-.0857-.258-.1714-.515-.1714s-.514-.0857-.771-.0857z"/><path d="m131.171 12.7143c1.2 0 2.229.2571 2.829.6857.686.4286 1.029 1.1143 1.029 2.1429 0 1.0285-.343 1.7143-1.029 2.1428-.686.4286-1.629.6857-2.914.6857h-.343c-.172 0-.257.0858-.257.2572v2.4857h-1.629c-.171 0-.257-.0857-.257-.2571v-7.9715c.429-.0857.857-.1714 1.286-.1714zm.172 1.5429c-.172 0-.257 0-.429 0h-.085c-.172 0-.258.0857-.258.2571v2.1429h.6c.686 0 1.115-.0858 1.458-.2572.342-.1714.514-.5143.514-.9428 0-.2572-.086-.4286-.172-.6-.085-.1715-.171-.2572-.342-.3429-.172-.0857-.343-.1714-.6-.1714-.172 0-.429-.0857-.686-.0857z"/><path d="m142.314 19.4857c.086 0 .086 0 .086.0857v1.4572c0 .0857 0 .0857-.086.0857h-4.971c-.172 0-.257-.0857-.257-.2572v-7.3714c0-.0857.085-.2571.171-.2571l1.714-.4286v6.6857z"/><path d="m144.714 21.1143c-.171 0-.257-.0857-.257-.2572v-8.0571h5.743c.086 0 .086.0857.086.0857l-.429 1.3714-.086.0857h-3.257c-.171 0-.257.0858-.257.2572v1.3714h3c.086 0 .086.0857.086.0857l-.343 1.3715-.086.0857h-2.314c-.171 0-.257.0857-.257.2571v1.7143h4.028c.086 0 .086.0857.086.0857l-.428 1.3714-.086.0858h-5.229z"/><path d="m154.829 12.7143c1.285 0 2.228.2571 2.828.6857.686.4286 1.029 1.1143 1.029 2.0572 0 .6-.172 1.0285-.429 1.4571-.257.3429-.686.6857-1.114.8571.171.1715.343.4286.514.6858.172.2571.343.5142.514.8571.172.2571.343.6.515.9429.171.2571.257.5142.428.7714 0 .0857 0 .0857-.085.0857h-1.886s-.086 0-.086-.0857c-.171-.2572-.257-.5143-.428-.7714-.172-.2572-.343-.5143-.515-.8572-.171-.2571-.343-.5143-.514-.7714-.171-.2572-.343-.4286-.514-.6857h-.686c-.171 0-.257.0857-.257.2571v2.7429h-1.629c-.171 0-.257-.0857-.257-.2572v-7.8c.429-.0857.857-.1714 1.286-.1714zm.085 1.5429c-.171 0-.257 0-.343 0 0 0 0 0-.085 0-.172 0-.257.0857-.257.2571v2.0571h.514c.686 0 1.2-.0857 1.543-.2571.257-.1714.428-.5143.428-.8571 0-.4286-.171-.6858-.428-.8572-.343-.2571-.772-.3428-1.372-.3428z"/><path d="m83.2571 11c-.1714 0-.1714.0857-.1714.1714l2.1429 3.3429c.1714.2571.5143.4286.8571.4286h2.9143c1.0286 0 1.7143.9428 1.7143 1.9714s-.6857 1.9714-1.7143 1.9714h-3.0857c-.1714.0857-.3429.2572-.3429.4286v3.3428c0 .1715.1715.3429.3429.3429h3.9428c3.4286 0 5.1429-3.2571 5.1429-6s-1.7143-6-5.1429-6zm1.3715 7.9714h-.7715c-.5142 0-.8571.4286-.8571 1.0286v1.5429 1.2857c0 .1714 0 .1714.0857.1714h.7714c.5143 0 .8572-.4286.8572-1.0286v-2.9143s0-.0857-.0857-.0857z"/></g></svg>